# xmcd
# Copyright (C) 1995-1998 Ti Kan
#
# Track frame offsets:
#       150
#       16893
#       36704
#       54389
#       67217
#       85431
#       108378
#       125405
#       149749
#       158104
#       184433
#
# Disc length: 2748 seconds
#
# Revision: 0
# Processed by: cddbd v1.5.2PL0 Copyright (c) Steve Scherf et al.
# Submitted via: CD-Transfer v1.0
#
DISCID=a90aba0b
DTITLE=Rodrigo Y Gabriela - Rodrigo Sanchez
DYEAR=09
DGENRE=
TTITLE0=Hanuman
TTITLE1=Buster Voodoo
TTITLE2=Triveni
TTITLE3=Logos
TTITLE4=Santo Domingo
TTITLE5=Master Maqui
TTITLE6=Savitri
TTITLE7=Hora Zero
TTITLE8=Chac Mool
TTITLE9=Atman
TTITLE10=11:11
EXTD=
EXTT0=
EXTT1=
EXTT2=
EXTT3=
EXTT4=
EXTT5=
EXTT6=
EXTT7=
EXTT8=
EXTT9=
EXTT10=
PLAYORDER=
